<?xml version="1.0" standalone="no"?>
<!DOCTYPE svg PUBLIC "-//W3C//DTD SVG 20010904//EN"
 "http://www.w3.org/TR/2001/REC-SVG-20010904/DTD/svg10.dtd">
<svg version="1.0" xmlns="http://www.w3.org/2000/svg"
 width="774.000000pt" height="344.000000pt" viewBox="0 0 774.000000 344.000000"
 preserveAspectRatio="xMidYMid meet">

<g transform="translate(0.000000,344.000000) scale(0.100000,-0.100000)"
fill="#000000" stroke="none">
<path d="M2710 2215 l0 -1145 1150 0 1150 0 0 1145 0 1145 -1150 0 -1150 0 0
-1145z m1235 928 c7 -29 18 -29 30 0 8 18 17 21 45 19 94 -8 183 -36 152 -49
-6 -2 -10 -9 -6 -14 3 -5 -33 -9 -85 -9 -54 0 -91 4 -91 10 0 6 -7 10 -15 10
-8 0 -15 -7 -15 -15 0 -18 -28 -34 -51 -28 -24 7 -34 40 -19 58 10 12 9 15 -9
15 -20 0 -27 10 -15 22 3 3 21 6 39 5 27 -1 35 -6 40 -24z m879 11 c13 -5 16
-24 16 -99 0 -51 -3 -107 -6 -124 -6 -27 -10 -30 -28 -25 -11 4 -37 8 -56 9
-53 3 -56 5 -40 15 12 8 10 10 -10 10 -24 1 -24 1 -6 15 13 10 24 11 37 5 23
-13 39 -13 39 0 0 6 -9 10 -20 10 -17 0 -19 4 -14 27 4 15 13 38 20 52 8 14
14 34 14 43 0 22 21 68 31 68 4 0 14 -3 23 -6z m-557 -48 c21 -7 68 -27 103
-43 36 -17 82 -36 102 -42 44 -14 71 -41 42 -41 -16 0 -16 -2 -4 -10 9 -5 19
-5 27 2 21 17 27 2 9 -24 -9 -12 -16 -30 -16 -40 0 -15 -5 -13 -29 10 -20 18
-26 29 -18 34 15 10 -10 28 -29 21 -7 -2 -33 9 -58 26 -24 17 -52 31 -61 31
-9 0 -14 4 -10 9 3 6 -3 9 -13 8 -10 0 -40 7 -65 17 -33 12 -47 23 -47 37 0
23 14 24 67 5z m-718 -15 c2 -1 -2 -7 -8 -15 -9 -11 -10 -20 -1 -35 9 -17 8
-20 -5 -15 -10 4 -13 2 -10 -8 7 -18 211 -15 280 5 28 8 52 13 54 11 3 -3 -11
-21 -31 -42 -19 -20 -45 -54 -57 -74 -14 -23 -30 -38 -42 -38 -21 0 -25 -10
-8 -27 7 -7 5 -12 -10 -16 -15 -3 -18 -1 -14 12 4 14 3 14 -10 -1 -8 -10 -17
-15 -21 -11 -9 9 -76 10 -76 2 0 -4 6 -9 13 -12 6 -2 -1 -2 -16 0 -18 3 -27 1
-25 -7 2 -9 -14 -14 -47 -15 -27 -2 -51 -8 -53 -14 -2 -6 -21 -14 -43 -17 -22
-4 -42 -11 -46 -17 -4 -6 6 -8 28 -5 19 3 52 3 74 -1 l40 -7 -52 -8 c-29 -4
-57 -14 -64 -22 -14 -17 2 -19 20 -1 10 10 11 9 5 -6 -5 -14 -2 -16 12 -10 18
6 18 5 -1 -18 -11 -13 -28 -30 -37 -37 -17 -12 -17 -14 2 -34 23 -25 23 -26
-19 -38 -19 -5 -33 -5 -37 1 -3 6 -17 -1 -31 -15 -14 -14 -30 -23 -36 -19 -5
3 -8 0 -5 -8 2 -7 -5 -22 -16 -32 -17 -15 -18 -18 -3 -13 18 6 24 -9 7 -19 -5
-3 -7 -12 -4 -19 3 -8 0 -17 -7 -22 -8 -5 -11 -2 -7 8 7 16 -27 42 -42 33 -5
-3 -14 3 -20 14 -8 17 -15 19 -35 11 -16 -6 -25 -6 -25 0 0 6 -4 10 -10 10 -5
0 -7 -6 -4 -13 8 -21 -21 -39 -67 -43 -22 -2 -44 -6 -50 -9 -15 -10 -10 -25 9
-26 16 -1 16 -2 0 -6 -10 -2 -18 -8 -18 -13 0 -5 -18 -30 -40 -55 -40 -46 -40
-46 -40 -18 0 66 13 133 26 133 7 0 16 5 20 12 5 8 2 9 -10 5 -15 -6 -17 -4
-11 10 4 10 11 35 16 56 12 49 68 167 80 167 5 0 8 6 7 13 -2 6 3 11 11 9 8
-2 11 3 8 11 -3 7 4 19 14 25 12 8 19 8 19 2 0 -5 -5 -10 -11 -10 -5 0 -7 -5
-3 -12 5 -8 14 -4 27 13 13 16 21 20 24 12 3 -7 9 -13 14 -13 6 0 8 4 5 9 -3
5 9 11 27 14 17 2 34 1 35 -4 2 -5 11 -9 20 -8 11 0 12 2 4 6 -19 7 -4 23 23
23 15 0 26 7 30 21 4 11 12 18 19 16 7 -3 18 8 25 24 9 20 17 26 29 22 14 -6
15 -4 5 9 -11 12 -8 17 14 27 22 10 24 14 12 23 -11 7 -9 9 9 5 23 -5 31 7 10
17 -9 4 -10 8 -2 11 6 3 20 13 30 21 18 15 18 15 -8 9 -17 -3 -28 -1 -28 6 0
13 -23 -9 -38 -38 -9 -15 -9 -24 -1 -28 14 -10 -26 -37 -49 -33 -9 1 -23 -1
-31 -6 -10 -7 -12 -5 -7 5 5 9 3 9 -6 -1 -7 -9 -27 -25 -44 -37 -28 -20 -31
-20 -41 -5 -11 16 -12 16 -12 0 -1 -10 -7 -18 -15 -18 -10 0 -14 -9 -13 -27 2
-22 -3 -29 -20 -31 -13 -2 -23 2 -23 8 0 6 4 8 10 5 6 -3 7 1 4 9 -13 34 179
195 286 240 36 15 76 34 90 41 21 12 33 13 69 6z m1181 -205 c0 -3 -4 -8 -10
-11 -5 -3 -10 -1 -10 4 0 6 5 11 10 11 6 0 10 -2 10 -4z m-50 -66 c0 -11 -4
-20 -10 -20 -5 0 -10 9 -10 20 0 11 5 20 10 20 6 0 10 -9 10 -20z m150 4 c0
-8 -5 -12 -10 -9 -6 4 -8 11 -5 16 9 14 15 11 15 -7z m-1230 -34 c-6 -11 -20
-20 -31 -20 -31 0 -1 30 39 39 1 1 -2 -8 -8 -19z m1102 -86 c-2 -17 -1 -17 10
-3 7 9 31 19 53 22 22 4 34 4 28 1 -7 -3 -13 -12 -13 -21 0 -8 -6 -21 -14 -29
-16 -16 -40 -19 -31 -4 3 6 2 10 -4 10 -5 0 -12 -4 -16 -9 -3 -6 -14 -9 -25
-8 -20 1 -34 22 -24 38 3 5 0 9 -7 9 -7 0 -9 3 -5 7 4 5 14 -1 23 -12 15 -19
15 -19 8 4 -5 17 -4 22 6 19 8 -3 13 -14 11 -24z m-1062 -194 c-6 -22 -15 -38
-20 -35 -6 4 -10 2 -10 -4 0 -5 5 -13 10 -16 15 -9 12 -51 -5 -65 -12 -10 -15
-10 -15 1 0 10 -3 10 -12 1 -9 -9 -9 -15 0 -24 23 -23 14 -55 -18 -68 -31 -13
-55 -6 -31 9 7 5 10 14 6 21 -4 6 1 18 11 26 18 15 18 15 1 10 -10 -3 -25 1
-34 10 -12 11 -18 12 -23 4 -6 -9 -9 -9 -12 1 -3 8 -8 11 -12 8 -9 -9 4 -40
15 -33 5 3 9 1 9 -4 0 -14 -21 -20 -47 -13 -21 6 -22 8 -8 34 17 33 40 57 54
57 6 0 10 3 9 8 -2 4 29 39 67 78 75 77 87 76 65 -6z m1171 0 c16 0 29 -4 29
-10 0 -5 -4 -10 -10 -10 -6 0 -6 -9 0 -26 6 -14 10 -52 10 -85 0 -52 -2 -59
-19 -59 -25 0 -33 13 -34 55 0 19 -4 32 -7 30 -12 -7 -26 83 -17 107 6 14 11
18 14 11 3 -7 18 -13 34 -13z m-1465 -6 c-9 -8 -21 -12 -28 -8 -8 5 -6 10 8
15 31 12 37 10 20 -7z m-126 -88 c0 -15 -24 -28 -34 -19 -7 7 13 33 25 33 5 0
9 -6 9 -14z m307 -79 c-4 -32 -16 -47 -37 -47 -10 0 -31 -5 -47 -12 -56 -23
-128 -46 -131 -43 -2 2 20 19 50 39 36 25 54 32 58 23 4 -9 12 -8 37 4 18 9
30 19 26 23 -3 3 4 6 16 6 18 0 21 4 16 21 -5 15 -4 19 4 15 6 -4 10 -17 8
-29z m-347 13 c0 -5 -5 -10 -11 -10 -5 0 -7 5 -4 10 3 6 8 10 11 10 2 0 4 -4
4 -10z m60 -9 c0 -23 -16 -36 -25 -21 -9 14 1 40 15 40 5 0 10 -9 10 -19z
m280 -65 c0 -2 -7 -7 -16 -10 -8 -3 -12 -2 -9 4 6 10 25 14 25 6z m45 -76 c23
-26 8 -26 -25 0 -18 14 -21 20 -9 20 9 0 24 -9 34 -20z m-555 -25 c-7 -9 -15
-13 -18 -10 -3 3 -18 -7 -34 -22 -15 -14 -30 -24 -33 -21 -8 8 55 69 65 63 5
-3 12 0 15 6 4 5 9 8 12 5 3 -3 0 -12 -7 -21z m467 10 c0 -8 -6 -15 -13 -15
-8 0 -11 6 -8 15 4 8 9 15 13 15 4 0 8 -7 8 -15z m59 -47 c-4 -7 -13 -24 -21
-38 l-15 -25 -6 23 c-4 14 -12 21 -20 18 -7 -3 -16 -1 -20 5 -3 5 -14 7 -25 4
-21 -7 -26 9 -6 22 22 14 40 12 53 -5 12 -16 14 -15 31 5 18 23 41 16 29 -9z
m-278 -8 c24 -12 40 -25 37 -31 -4 -5 -12 -7 -18 -3 -7 3 -1 -4 12 -15 24 -22
56 -28 65 -12 8 12 46 21 46 10 0 -5 -17 -17 -39 -28 -49 -26 -61 -51 -23 -51
15 0 22 -4 16 -8 -6 -4 -13 -13 -15 -20 -3 -10 -11 -8 -28 7 -26 22 -43 29
-23 9 18 -18 14 -25 -14 -25 -19 0 -22 2 -13 8 12 8 11 11 -1 19 -13 9 -13 10
0 10 9 0 23 9 32 19 15 18 15 19 -10 24 -15 3 -35 1 -45 -5 -12 -6 -23 -6 -29
0 -14 14 -58 3 -51 -14 3 -8 0 -14 -7 -14 -6 0 -8 -4 -5 -10 3 -5 17 -10 31
-10 13 0 24 -4 24 -10 0 -5 7 -10 16 -10 8 0 12 -5 9 -10 -4 -6 -11 -8 -16 -5
-5 4 -9 0 -9 -9 0 -8 6 -17 13 -20 19 -7 -33 -48 -55 -43 -11 3 -18 0 -18 -8
0 -18 17 -28 25 -15 3 5 17 10 30 10 13 0 28 7 32 15 7 12 16 13 43 5 18 -5
37 -15 41 -22 7 -10 11 -10 21 0 10 10 10 14 -1 21 -8 5 -11 16 -8 25 4 9 -1
20 -11 25 -15 9 -15 10 -1 11 9 0 19 -7 23 -15 3 -8 13 -15 23 -15 14 0 15 2
4 9 -23 15 -3 33 21 20 15 -8 22 -8 27 0 8 12 81 3 81 -10 0 -4 9 -7 21 -6 18
1 18 3 4 13 -9 7 -12 14 -8 16 4 3 2 3 -5 1 -13 -3 -28 4 -61 26 -11 7 -10 13
6 30 17 18 21 20 26 7 4 -9 2 -18 -3 -21 -6 -4 -10 -10 -10 -16 0 -13 27 -11
36 3 5 7 3 8 -6 3 -9 -5 -11 -4 -6 3 5 9 13 8 29 -1 27 -15 37 -28 31 -39 -3
-4 4 -8 15 -8 12 0 21 -4 21 -10 0 -5 -8 -7 -17 -3 -17 5 -17 5 -2 -8 9 -8 19
-30 23 -49 4 -24 3 -30 -3 -20 -6 8 -14 11 -18 6 -9 -9 24 -36 45 -36 7 0 21
-7 29 -16 14 -13 14 -17 2 -24 -8 -6 -16 -4 -21 3 -6 9 -8 9 -8 -1 0 -8 9 -16
19 -19 14 -4 23 -22 35 -74 8 -38 13 -76 10 -84 -4 -8 -2 -15 4 -15 6 0 14
-15 17 -32 20 -91 49 -144 114 -209 55 -55 74 -68 111 -74 97 -17 182 3 241
57 36 34 49 78 56 195 3 56 10 100 14 97 5 -3 9 2 9 10 0 9 -4 16 -9 16 -4 0
-11 66 -14 148 -8 223 -32 276 -128 289 -35 5 -37 7 -27 29 l11 24 184 0 c151
0 187 -3 200 -15 8 -8 19 -12 25 -9 6 4 15 0 20 -7 7 -11 11 -11 15 -1 2 6 14
12 26 13 21 0 21 1 2 9 -12 5 43 9 144 9 l164 1 -6 -28 c-3 -16 0 -41 9 -56 8
-18 11 -34 5 -43 -4 -9 -6 -35 -3 -59 4 -40 3 -44 -17 -44 -27 0 -28 -16 -1
-23 15 -4 20 -14 20 -42 0 -20 -4 -34 -8 -31 -4 2 -14 1 -21 -4 -16 -9 -6 -30
15 -30 11 0 14 -22 14 -117 0 -65 -4 -113 -8 -108 -7 10 -32 18 -32 11 0 -14
13 -35 20 -31 14 9 18 -20 5 -38 -11 -16 -14 -15 -31 8 -10 14 -28 25 -39 24
-18 0 -18 -1 3 -10 13 -5 20 -13 17 -19 -3 -5 1 -10 9 -10 8 0 19 -6 23 -14 4
-8 13 -14 18 -13 13 3 15 -45 5 -103 -6 -30 -5 -47 3 -52 8 -5 7 -11 -2 -21
-8 -10 -9 -17 -1 -22 14 -9 13 -25 -2 -25 -16 0 -68 73 -68 95 0 9 4 14 9 11
5 -3 9 4 9 17 0 12 3 33 6 47 l6 25 -10 -25 c-6 -14 -21 -33 -34 -42 -22 -16
-25 -16 -57 7 -18 14 -41 25 -52 25 -10 0 -17 5 -14 13 2 6 19 12 37 12 21 0
35 6 37 15 4 13 3 13 -6 0 -8 -12 -13 -12 -23 -2 -15 15 -88 16 -88 1 0 -6 9
-9 20 -6 12 3 18 1 14 -5 -4 -6 -29 -8 -65 -4 -91 11 -181 -16 -295 -86 -72
-45 -158 -85 -199 -92 -16 -3 -54 -11 -84 -18 -42 -9 -56 -9 -59 0 -2 8 -8 7
-19 -3 -38 -38 -434 11 -419 52 4 11 1 13 -15 8 -24 -8 -130 41 -170 79 -15
14 -29 22 -33 19 -3 -3 -8 1 -12 10 -3 9 -11 14 -18 11 -35 -13 -219 228 -276
360 -22 53 -20 66 14 66 27 0 44 -38 21 -46 -7 -3 -16 -12 -19 -20 -4 -11 -2
-12 15 -1 11 6 24 29 30 50 5 20 14 37 19 37 6 0 10 5 10 12 0 6 -7 4 -18 -5
-23 -21 -39 -22 -22 -2 10 12 10 15 -3 15 -8 0 -20 -7 -27 -15 -13 -15 -49
-21 -51 -7 -1 8 -3 17 -24 92 -18 65 -21 143 -4 120 8 -11 12 -12 16 -3 3 9
10 10 23 3 24 -13 37 5 19 26 -9 11 0 10 40 -6 49 -19 91 -19 60 1 -11 7 -10
9 5 9 12 0 16 5 13 15 -4 8 -1 17 5 21 7 4 8 3 4 -4 -5 -8 0 -12 13 -12 12 0
21 5 21 11 0 6 7 9 15 5 8 -3 25 -1 37 4 31 12 29 12 76 -10z m1242 16 c0 -2
-7 -6 -15 -10 -8 -3 -15 -1 -15 4 0 6 7 10 15 10 8 0 15 -2 15 -4z m-1047 -63
c-5 -12 -7 -12 -14 -1 -5 7 -9 19 -9 27 0 11 3 11 14 1 8 -6 12 -18 9 -27z
m-35 -105 c-5 -16 -48 -24 -48 -9 0 8 17 16 43 20 5 0 7 -5 5 -11z m-113 -58
c3 -5 1 -10 -4 -10 -6 0 -11 5 -11 10 0 6 2 10 4 10 3 0 8 -4 11 -10z m335
-70 c0 -5 -10 -10 -22 -9 -22 0 -22 1 -3 9 11 5 21 9 23 9 1 1 2 -3 2 -9z"/>
<path d="M4500 2940 c0 -5 5 -10 10 -10 6 0 10 5 10 10 0 6 -4 10 -10 10 -5 0
-10 -4 -10 -10z"/>
<path d="M3457 3033 c-14 -14 -6 -59 13 -70 10 -7 22 -9 25 -4 3 5 -1 11 -7
14 -10 4 -11 7 0 18 19 20 14 31 -10 23 -20 -6 -21 -5 -9 10 13 15 2 24 -12 9z"/>
<path d="M3210 2915 c-18 -19 -32 -37 -29 -39 2 -3 19 13 37 35 41 48 37 51
-8 4z"/>
<path d="M3286 2747 c3 -10 9 -15 12 -12 3 3 0 11 -7 18 -10 9 -11 8 -5 -6z"/>
<path d="M3325 2750 c-17 -8 -16 -8 8 -7 15 1 27 5 27 9 0 10 -9 9 -35 -2z"/>
<path d="M3320 2695 c0 -18 -26 -20 -33 -2 -3 6 -4 -3 -2 -21 3 -27 1 -31 -9
-23 -18 15 -41 5 -54 -25 -13 -27 -6 -30 22 -9 11 8 15 19 10 27 -5 9 -2 9 10
-2 16 -13 20 -12 31 3 7 9 19 17 28 17 9 0 19 5 22 10 3 6 1 10 -5 10 -7 0
-10 7 -6 15 3 8 1 15 -4 15 -6 0 -10 -7 -10 -15z"/>
<path d="M3329 2633 c-13 -15 -12 -15 9 -4 23 12 28 21 13 21 -5 0 -15 -7 -22
-17z"/>
<path d="M3191 2611 c-6 -10 -7 -21 -3 -25 3 -4 0 -11 -8 -16 -9 -6 -10 -10
-3 -10 15 0 26 18 29 47 3 28 -2 29 -15 4z"/>
<path d="M3223 2572 c-8 -13 -7 -22 2 -35 11 -16 13 -16 19 -1 9 23 8 24 -11
17 -16 -6 -16 -5 -4 10 8 10 12 19 10 22 -3 2 -10 -4 -16 -13z"/>
<path d="M3137 2563 c-4 -3 -7 -11 -7 -17 0 -6 5 -5 12 2 6 6 9 14 7 17 -3 3
-9 2 -12 -2z"/>
<path d="M3196 2531 c-4 -7 -5 -15 -2 -18 9 -9 19 4 14 18 -4 11 -6 11 -12 0z"/>
<path d="M2993 2518 c4 -10 2 -18 -3 -18 -6 0 -10 -5 -10 -12 0 -8 6 -6 17 5
14 14 15 19 4 29 -11 11 -13 10 -8 -4z"/>
<path d="M2950 2400 c0 -5 5 -10 11 -10 5 0 7 5 4 10 -3 6 -8 10 -11 10 -2 0
-4 -4 -4 -10z"/>
<path d="M3590 2424 c0 -8 5 -12 10 -9 6 4 8 11 5 16 -9 14 -15 11 -15 -7z"/>
<path d="M4766 2475 c4 -8 8 -15 10 -15 2 0 4 7 4 15 0 8 -4 15 -10 15 -5 0
-7 -7 -4 -15z"/>
<path d="M4427 2092 c1 -8 3 -16 3 -18 0 -2 7 -4 16 -4 8 0 26 -13 39 -29 18
-21 31 -27 49 -24 33 7 27 34 -12 47 -17 6 -34 14 -38 19 -4 4 -17 7 -30 7
-12 0 -24 3 -27 8 -2 4 -2 1 0 -6z"/>
<path d="M4333 2084 c3 -4 2 -15 -4 -25 -8 -15 -6 -19 9 -19 10 0 21 3 24 6
11 10 -4 44 -20 44 -8 0 -12 -3 -9 -6z"/>
<path d="M3020 2050 c0 -5 7 -10 15 -10 8 0 15 5 15 10 0 6 -7 10 -15 10 -8 0
-15 -4 -15 -10z"/>
<path d="M3010 2020 c0 -5 7 -10 16 -10 8 0 12 5 9 10 -3 6 -10 10 -16 10 -5
0 -9 -4 -9 -10z"/>
<path d="M3116 2014 c-9 -24 -2 -26 12 -4 7 11 8 20 3 20 -5 0 -12 -7 -15 -16z"/>
<path d="M4550 2000 c20 -13 33 -13 25 0 -3 6 -14 10 -23 10 -15 0 -15 -2 -2
-10z"/>
<path d="M3044 1978 c0 -21 1 -21 27 -8 26 14 24 25 -4 25 -15 0 -23 -6 -23
-17z"/>
<path d="M3143 1973 c9 -2 23 -2 30 0 6 3 -1 5 -18 5 -16 0 -22 -2 -12 -5z"/>
<path d="M3460 1927 c0 -19 16 -31 24 -18 3 5 -1 14 -9 21 -12 10 -15 10 -15
-3z"/>
<path d="M3170 1920 c20 -13 33 -13 25 0 -3 6 -14 10 -23 10 -15 0 -15 -2 -2
-10z"/>
<path d="M4753 1898 c-21 -23 -12 -32 24 -24 18 4 29 14 30 24 2 24 -33 23
-54 0z"/>
<path d="M3383 1892 c-21 -3 -62 -52 -44 -52 6 0 15 8 21 18 8 12 13 13 16 5
8 -19 22 -16 34 6 11 22 4 29 -27 23z"/>
<path d="M3476 1883 c-3 -3 -6 -17 -6 -30 0 -22 2 -23 15 -9 8 8 15 19 15 25
0 13 -15 22 -24 14z"/>
<path d="M3265 1860 c3 -5 11 -10 16 -10 6 0 7 5 4 10 -3 6 -11 10 -16 10 -6
0 -7 -4 -4 -10z"/>
<path d="M3180 1853 c-24 -9 -50 -35 -44 -44 3 -5 10 -7 15 -4 5 4 12 -1 15
-9 9 -22 24 -20 24 4 0 13 5 18 15 14 8 -4 17 1 21 9 3 9 12 13 20 10 9 -3 12
0 9 9 -6 15 -46 20 -75 11z"/>
<path d="M4725 1841 c7 -22 7 -22 -19 -5 -35 22 -44 12 -12 -14 15 -11 26 -24
26 -30 0 -6 15 -20 34 -31 49 -31 63 -50 45 -62 -8 -5 -9 -9 -4 -9 45 0 28 38
-35 77 -19 13 -28 23 -20 23 13 0 13 1 0 10 -13 9 -13 11 -1 19 12 8 11 12 -4
27 -17 17 -17 17 -10 -5z"/>
<path d="M3112 1838 c-14 -14 -16 -28 -3 -28 5 0 11 9 14 20 6 23 5 24 -11 8z"/>
<path d="M3502 1823 c-12 -29 -15 -49 -13 -72 1 -11 4 -11 16 -1 9 7 15 20 14
29 -4 47 1 59 24 55 20 -4 21 -4 2 5 -30 14 -32 13 -43 -16z"/>
<path d="M3300 1814 c0 -3 7 -12 15 -20 16 -17 18 -14 9 10 -6 15 -24 23 -24
10z"/>
<path d="M4230 1815 c0 -6 16 -26 36 -45 20 -19 49 -47 65 -62 15 -16 33 -28
39 -28 6 0 22 -12 36 -27 24 -26 25 -26 16 -3 -9 24 -21 34 -54 44 -26 8 -23
40 3 33 17 -4 18 -3 8 9 -9 11 -15 11 -25 3 -11 -9 -24 -3 -61 27 -27 21 -51
43 -55 49 -5 7 -8 7 -8 0z"/>
<path d="M3437 1790 c-22 -26 -22 -46 1 -60 12 -8 13 -13 5 -16 -16 -7 -17
-25 -2 -21 6 1 13 -11 15 -27 1 -16 9 -33 15 -37 10 -6 10 -11 0 -23 -11 -14
-11 -16 4 -16 9 0 19 9 22 20 3 11 12 20 20 20 12 0 11 3 -2 17 -13 12 -19 13
-25 4 -10 -17 -22 28 -25 97 -2 30 -5 55 -7 57 -2 3 -12 -5 -21 -15z"/>
<path d="M3550 1780 c0 -5 7 -7 15 -4 8 4 15 8 15 10 0 2 -7 4 -15 4 -8 0 -15
-4 -15 -10z"/>
<path d="M3280 1770 c20 -13 33 -13 25 0 -3 6 -14 10 -23 10 -15 0 -15 -2 -2
-10z"/>
<path d="M3224 1755 c8 -8 22 -12 31 -9 13 6 14 8 3 15 -7 5 -21 9 -31 9 -16
0 -17 -2 -3 -15z"/>
<path d="M4570 1740 c0 -5 -7 -10 -16 -10 -9 0 -14 -6 -11 -12 2 -7 8 -13 13
-13 5 0 14 -4 21 -8 17 -11 26 10 13 33 -12 22 -20 26 -20 10z"/>
<path d="M4767 1719 c7 -7 15 -10 18 -7 3 3 -2 9 -12 12 -14 6 -15 5 -6 -5z"/>
<path d="M4462 1700 c7 -11 19 -18 26 -15 8 3 18 5 23 5 6 0 7 5 4 10 -4 6
-15 8 -26 5 -11 -4 -19 -2 -19 4 0 6 -5 11 -10 11 -6 0 -5 -8 2 -20z"/>
<path d="M4337 1643 c-7 -6 22 -53 33 -53 4 0 10 9 13 19 3 13 -3 22 -18 29
-13 6 -25 8 -28 5z"/>
<path d="M4277 1563 c-3 -5 5 -8 18 -8 13 0 21 3 18 8 -2 4 -10 7 -18 7 -8 0
-16 -3 -18 -7z"/>
<path d="M4418 1563 c7 -3 16 -2 19 1 4 3 -2 6 -13 5 -11 0 -14 -3 -6 -6z"/>
<path d="M3600 1543 c0 -4 5 -15 10 -23 8 -13 10 -13 10 2 0 9 -4 20 -10 23
-5 3 -10 3 -10 -2z"/>
<path d="M4405 1530 c10 -11 20 -18 23 -16 5 6 -23 36 -34 36 -4 0 1 -9 11
-20z"/>
<path d="M4466 1535 c4 -8 10 -15 15 -15 4 0 6 7 3 15 -4 8 -10 15 -15 15 -4
0 -6 -7 -3 -15z"/>
<path d="M4670 1530 c0 -5 16 -10 35 -10 19 0 35 5 35 10 0 6 -16 10 -35 10
-19 0 -35 -4 -35 -10z"/>
<path d="M3260 1501 c0 -12 5 -21 10 -21 6 0 10 6 10 14 0 8 -4 18 -10 21 -5
3 -10 -3 -10 -14z"/>
<path d="M4380 1506 c0 -2 7 -9 15 -16 12 -10 15 -10 15 4 0 9 -7 16 -15 16
-8 0 -15 -2 -15 -4z"/>
<path d="M3570 1497 c0 -5 9 -20 20 -34 11 -14 20 -21 20 -15 0 12 -39 60 -40
49z"/>
<path d="M3625 1490 c-3 -6 1 -7 9 -4 18 7 21 14 7 14 -6 0 -13 -4 -16 -10z"/>
<path d="M4260 1451 c0 -5 5 -13 10 -16 6 -3 10 -2 10 4 0 5 -4 13 -10 16 -5
3 -10 2 -10 -4z"/>
<path d="M3578 1412 c-15 -6 -13 -11 17 -35 38 -31 45 -33 45 -14 0 8 -12 19
-26 25 -14 7 -22 17 -19 22 7 11 7 11 -17 2z"/>
<path d="M4824 1409 c-4 -6 -10 -27 -14 -45 -6 -26 -5 -34 6 -34 15 0 15 -1
18 53 3 39 1 44 -10 26z"/>
<path d="M3640 1270 c0 -5 5 -10 11 -10 5 0 7 5 4 10 -3 6 -8 10 -11 10 -2 0
-4 -4 -4 -10z"/>
<path d="M105 3328 c-3 -7 -4 -515 -3 -1128 l3 -1115 1125 0 1125 0 3 1128 2
1127 -1125 0 c-891 0 -1127 -3 -1130 -12z m1352 -164 c86 -17 143 -41 258
-106 173 -97 175 -98 203 -92 55 13 86 62 98 155 6 46 8 49 35 49 l29 0 0
-420 0 -420 -24 0 c-21 0 -29 16 -91 183 -100 270 -134 335 -215 421 -81 85
-143 121 -242 142 -265 56 -426 -109 -515 -526 -28 -132 -26 -529 4 -660 97
-427 282 -613 569 -571 195 28 337 151 429 370 31 74 65 190 65 224 0 21 16
30 39 22 16 -5 19 -13 14 -43 -28 -199 -146 -420 -282 -529 -70 -56 -172 -106
-276 -135 -70 -19 -105 -22 -285 -22 -191 0 -212 2 -304 27 -119 32 -259 98
-344 162 -93 70 -212 203 -265 297 -172 302 -169 724 7 1017 143 239 385 402
676 455 106 20 323 20 417 0z"/>
<path d="M5355 3328 c-3 -7 -4 -521 -3 -1143 l3 -1130 1145 0 1145 0 0 1140 0
1140 -1143 3 c-909 2 -1144 0 -1147 -10z m1805 -217 c0 -22 -34 -31 -119 -32
-71 0 -119 -17 -143 -50 -30 -41 -38 -206 -37 -869 0 -635 6 -786 33 -838 19
-37 88 -62 170 -62 70 0 96 -9 96 -31 0 -18 -20 -19 -625 -19 -611 0 -625 0
-625 19 0 16 9 20 58 25 99 10 161 24 187 43 50 37 50 31 50 878 0 754 -1 792
-19 828 -23 47 -58 66 -138 73 -114 9 -128 13 -128 34 0 20 11 20 620 20 600
0 620 -1 620 -19z"/>
<path d="M50 470 c0 -337 1 -341 69 -403 l41 -37 3720 0 3720 0 41 37 c68 62
69 66 69 403 l0 300 -3830 0 -3830 0 0 -300z m2648 123 c7 -44 -66 -68 -82
-27 -9 24 4 62 22 67 24 5 56 -16 60 -40z m-1508 1 c0 -13 -6 -33 -12 -44 -11
-17 -10 -22 1 -29 16 -10 18 -64 2 -69 -7 -2 -11 -41 -11 -113 l0 -110 -42 3
-43 3 -3 108 c-1 60 -7 107 -12 107 -14 0 -12 68 1 72 7 2 17 19 23 38 7 24
22 40 45 52 40 20 51 16 51 -18z m2540 -3 c0 -30 -4 -40 -20 -44 -11 -3 -20
-10 -20 -16 0 -6 9 -11 20 -11 16 0 20 -7 20 -35 0 -28 -4 -35 -20 -35 -18 0
-20 -8 -22 -107 l-3 -108 -32 -3 -33 -3 0 110 c0 67 -4 111 -10 111 -5 0 -10
16 -10 35 0 19 5 35 10 35 6 0 10 9 10 21 0 33 19 60 53 74 50 22 57 19 57
-24z m-2032 -173 c-3 -183 -3 -183 -26 -186 -13 -2 -29 1 -35 7 -8 6 -18 6
-27 1 -28 -18 -78 -11 -107 14 -27 23 -28 28 -28 120 0 85 2 98 22 118 24 23
81 30 116 14 15 -7 17 -2 17 43 l0 51 35 0 35 0 -2 -182z m2520 0 l-3 -183
-32 -3 -33 -3 0 185 0 186 35 0 35 0 -2 -182z m392 132 c0 -47 1 -50 19 -40
39 20 74 11 103 -26 84 -111 3 -300 -103 -244 -13 7 -19 7 -19 0 0 -5 -18 -10
-40 -10 l-40 0 0 185 0 185 40 0 40 0 0 -50z m546 -132 l-1 -183 -35 0 -35 0
-3 183 -2 182 38 0 39 0 -1 -182z m-4717 153 c39 -20 71 -59 71 -86 0 -24 -72
-20 -95 5 -25 28 -79 27 -99 -2 -26 -37 -30 -85 -11 -133 9 -25 23 -45 30 -45
7 0 20 -2 28 -6 8 -3 28 6 45 20 37 32 102 37 102 8 0 -46 -79 -102 -145 -102
-56 0 -94 25 -116 76 -39 93 -13 235 50 269 37 20 95 18 140 -4z m2091 -22 c0
-24 4 -29 24 -29 17 0 25 -7 28 -24 6 -30 -1 -43 -27 -47 -16 -3 -21 -13 -23
-53 -4 -68 4 -96 28 -96 16 0 20 -7 20 -35 0 -33 -2 -35 -33 -35 -61 0 -72 17
-75 119 -3 55 -9 94 -16 100 -14 12 -9 71 5 71 5 0 9 15 9 33 0 32 2 33 30 29
25 -4 30 -9 30 -33z m1508 30 c29 -10 72 -62 72 -88 0 -17 -75 -14 -90 4 -13
16 -47 20 -75 9 -24 -9 -45 -58 -45 -102 0 -78 77 -127 126 -81 33 31 30 39
-16 39 l-40 0 0 40 0 40 75 0 75 0 0 -51 c0 -119 -104 -193 -205 -147 -41 18
-75 95 -75 168 0 137 84 209 198 169z m1317 -169 l0 -175 -37 -3 -38 -3 0 181
0 181 38 -3 37 -3 0 -175z m1485 140 c0 -19 6 -29 20 -33 15 -4 20 -14 20 -36
0 -24 -4 -31 -20 -31 -18 0 -20 -7 -20 -71 0 -62 2 -71 20 -76 15 -4 20 -14
20 -39 0 -33 -1 -34 -38 -34 -38 0 -80 27 -84 53 0 7 -2 17 -3 22 -2 6 -3 40
-4 78 -1 52 -4 67 -16 67 -10 0 -15 10 -15 30 0 18 6 33 15 36 8 4 15 19 15
34 0 25 4 29 33 32 47 5 57 -1 57 -32z m-6126 -44 c80 -33 81 -228 1 -264 -48
-22 -101 -15 -140 19 -35 31 -35 32 -35 113 0 73 3 85 23 103 50 45 92 54 151
29z m153 3 c8 -8 17 -8 31 0 38 20 81 13 113 -18 29 -29 29 -31 29 -145 l0
-116 -40 0 -40 0 0 105 c0 104 0 105 -26 111 -44 11 -58 -14 -64 -119 l-5 -92
-32 -3 -33 -3 0 145 0 146 28 0 c15 0 33 -5 39 -11z m513 -4 c39 -20 62 -66
58 -118 l-3 -42 -72 -3 c-73 -3 -83 -8 -61 -30 15 -15 58 -16 58 -2 0 6 16 10
35 10 45 0 46 -21 4 -61 -24 -22 -41 -29 -73 -29 -78 0 -126 83 -107 185 17
89 87 128 161 90z m543 -7 c28 -25 51 -90 45 -128 -3 -24 -7 -25 -75 -28 -65
-3 -73 -5 -73 -22 0 -15 7 -20 29 -20 17 0 33 5 36 10 3 6 22 10 41 10 32 0
35 -2 29 -22 -20 -65 -121 -93 -165 -45 -40 41 -52 77 -48 133 5 55 39 120 68
128 43 11 88 5 113 -16z m155 6 c8 -14 10 -14 21 0 8 9 22 16 33 16 16 0 19
-6 16 -42 -2 -33 -7 -44 -22 -46 -38 -8 -46 -27 -46 -116 l0 -86 -40 0 -40 0
0 145 0 145 35 0 c20 0 37 -6 43 -16z m233 6 c13 -8 19 -7 19 0 0 7 15 10 38
8 l37 -3 0 -140 0 -140 -37 -3 c-26 -2 -38 1 -38 9 0 10 -3 10 -12 1 -13 -13
-87 -16 -104 -4 -22 15 -44 82 -44 136 0 61 26 133 50 140 30 8 72 6 91 -4z
m379 -135 l0 -145 -35 0 -35 0 0 145 0 145 35 0 35 0 0 -145z m220 127 c24
-11 39 -28 47 -52 24 -71 10 -165 -29 -198 -9 -7 -38 -15 -65 -19 -56 -6 -104
13 -125 50 -16 28 -15 155 1 185 26 48 110 65 171 34z m156 8 c6 -6 21 -6 42
2 26 10 37 9 66 -5 46 -21 58 -64 54 -182 l-3 -90 -37 -3 -38 -3 -1 83 c-1 96
-9 132 -29 135 -36 7 -45 -14 -50 -114 l-5 -98 -30 0 -30 0 -3 129 c-1 72 0
136 2 143 6 15 48 17 62 3z m464 -8 c30 -15 36 -24 47 -72 19 -81 2 -155 -40
-181 -64 -38 -155 -16 -176 42 -14 41 -14 127 0 168 19 55 103 77 169 43z
m937 -26 c30 -33 33 -41 33 -98 -1 -35 -6 -73 -14 -86 -41 -75 -183 -85 -215
-15 -6 13 -11 59 -11 101 0 114 28 145 124 138 42 -3 55 -9 83 -40z m464 33
c15 -7 24 -7 34 1 8 6 26 10 42 8 l28 -3 0 -140 0 -140 -34 -3 c-19 -2 -37 2
-41 8 -6 9 -13 9 -28 1 -27 -14 -64 -14 -97 1 -40 18 -61 101 -45 183 11 56
16 65 43 79 38 18 71 20 98 5z m545 1 c8 -8 19 -7 37 1 41 19 88 1 110 -41 14
-28 17 -55 15 -135 l-3 -100 -37 -3 -38 -3 0 95 c0 105 -5 126 -29 126 -39 -1
-46 -17 -51 -117 l-5 -98 -30 0 -30 0 -3 129 c-1 72 0 136 2 143 6 16 48 17
62 3z m274 -6 c0 -14 2 -14 22 0 32 23 73 20 105 -8 27 -24 28 -27 31 -145 l4
-121 -36 0 -36 0 0 85 c0 47 -4 85 -9 85 -5 0 -11 10 -13 22 -4 28 -30 34 -52
13 -12 -13 -16 -37 -16 -111 l0 -94 -35 0 -35 0 0 145 0 145 35 0 c25 0 35 -4
35 -16z m365 2 c40 -17 51 -35 59 -101 13 -114 -28 -175 -118 -175 -73 0 -116
53 -116 143 0 116 76 174 175 133z m175 -82 c12 -52 26 -92 30 -87 5 4 15 35
23 68 25 99 34 115 61 115 36 0 38 -10 15 -77 -11 -33 -25 -93 -32 -134 l-13
-74 -50 -3 -50 -3 -26 83 c-35 107 -48 158 -48 186 0 18 5 22 33 22 l34 0 23
-96z m303 85 c16 -9 22 -9 25 0 2 6 19 11 38 11 l34 0 0 -145 0 -145 -34 0
c-19 0 -36 5 -38 11 -3 9 -9 9 -25 0 -29 -15 -74 -14 -95 3 -45 34 -61 142
-32 215 22 55 77 76 127 50z m471 1 c49 -18 72 -130 44 -220 -14 -44 -40 -60
-99 -60 -31 0 -47 7 -70 29 -27 28 -29 34 -29 113 0 72 3 87 23 109 34 39 79
49 131 29z m166 -5 c0 -14 3 -14 30 0 50 26 60 21 60 -30 0 -41 -2 -45 -25
-45 -51 0 -65 -26 -65 -117 l0 -83 -30 0 -30 0 0 145 0 145 30 0 c20 0 30 -5
30 -15z m265 -11 c32 -34 33 -64 3 -64 -12 0 -29 7 -39 16 -24 21 -49 12 -42
-15 3 -13 18 -24 42 -31 40 -11 61 -43 61 -95 0 -53 -24 -75 -81 -75 -41 0
-54 5 -74 26 -37 40 -33 64 10 64 19 0 35 -4 35 -9 0 -14 40 -25 51 -14 13 13
-8 29 -56 46 -31 11 -42 21 -54 54 -12 35 -12 46 -1 73 23 56 104 69 145 24z"/>
<path d="M1574 442 c-17 -11 -34 -48 -34 -74 0 -29 26 -68 45 -68 42 0 61 83
29 128 -16 24 -23 26 -40 14z"/>
<path d="M4628 439 c-14 -8 -18 -23 -18 -65 0 -48 3 -56 25 -66 21 -9 28 -8
45 7 24 22 27 81 4 113 -17 24 -30 27 -56 11z"/>
<path d="M636 435 c-34 -35 -30 -106 8 -129 14 -9 21 -6 37 13 22 27 24 65 6
100 -16 31 -31 36 -51 16z"/>
<path d="M1306 441 c-25 -28 -19 -41 19 -41 30 0 35 3 35 24 0 30 -33 40 -54
17z"/>
<path d="M1837 448 c-9 -5 -17 -18 -17 -28 0 -17 7 -20 40 -20 32 0 40 4 40
18 0 24 -40 43 -63 30z"/>
<path d="M2256 437 c-9 -7 -20 -31 -23 -54 -4 -33 -1 -45 16 -62 46 -46 87
-12 78 67 -6 58 -33 77 -71 49z"/>
<path d="M2822 432 c-46 -46 -15 -150 37 -122 28 14 29 88 3 120 l-19 23 -21
-21z"/>
<path d="M3448 440 c-42 -25 -27 -132 20 -138 31 -5 47 38 35 98 -8 47 -24 58
-55 40z"/>
<path d="M4353 440 c-29 -12 -42 -74 -22 -109 43 -76 116 10 76 88 -14 29 -24
33 -54 21z"/>
<path d="M4890 430 c-34 -34 -17 -130 24 -130 22 0 46 35 46 69 0 64 -36 95
-70 61z"/>
<path d="M6043 442 c-37 -23 -38 -113 -1 -133 47 -25 79 66 42 119 -16 24 -22
26 -41 14z"/>
<path d="M6546 428 c-22 -31 -20 -91 2 -111 25 -23 39 -21 58 8 20 31 13 94
-13 112 -23 18 -29 16 -47 -9z"/>
<path d="M6994 442 c-16 -10 -25 -72 -16 -107 11 -40 45 -45 68 -10 20 31 13
94 -13 112 -19 15 -24 15 -39 5z"/>
</g>
</svg>
